<svg xmlns="http://www.w3.org/2000/svg" width="68.375" height="62"><path d="M44.1.695c6.452 2.081 10.275 8.223 8.54 13.721l-12.848 40.7c-1.735 5.5-8.371 8.266-14.823 6.185s-10.274-8.221-8.538-13.718l12.848-40.7C31.013 1.384 37.649-1.386 44.1.695zm18.431 18.228c4.193 1.352 6.677 5.344 5.55 8.917l-8.35 26.453c-1.128 3.572-5.44 5.372-9.633 4.02s-6.678-5.344-5.55-8.917l8.35-26.452c1.133-3.574 5.441-5.374 9.633-4.021zM18.278 6.01c4.193 1.352 6.677 5.344 5.55 8.917l-8.35 26.452c-1.128 3.573-5.441 5.373-9.633 4.02s-6.677-5.344-5.55-8.917L8.644 10.03c1.128-3.573 5.441-5.373 9.634-4.02z" fill="#fff" fill-rule="evenodd"/></svg>